<svg xmlns="http://www.w3.org/2000/svg" xmlns:xlink="http://www.w3.org/1999/xlink" class="plants" x="0px" y="0px" viewBox="0 0 143 270" style="enable-background:new 0 0 143 270;" xml:space="preserve"><style type="text/css">	.st0{fill:#A6D66B;}	.st1{fill:#C6E5AC;}	.st2{fill:#0F7437;}	.st3{fill:#005A2A;}	.st4{fill:#84A21D;}	.st5{fill:#5D9116;}	.st6{fill:#8BBA21;}	@keyframes wave {		0% {			transform: rotateZ(1deg) translateZ(-1px);		}		25%{			transform: rotateZ(-1deg) translateZ(-1px);		}		50% {			transform: rotateZ(1deg) translateZ(-1px);		}		75% {			transform: rotateZ(-1deg) translateZ(-1px);		}		100% {			transform: rotateZ(1deg) translateZ(-1px);		}	}	@keyframes wave2 {		0% {			transform: rotateZ(0deg) translateZ(-1px);		}		25%{			transform: rotateZ(-1deg) translateZ(-1px);		}		50% {			transform: rotateZ(1deg) translateZ(-1px);		}		75% {			transform: rotateZ(-1deg) translateZ(-1px);		}		100% {			transform: rotateZ(0deg) translateZ(-1px);		}	}	.plants { transform: scaleX(-1) rotate(7deg); }	.leaf1 { animation: wave2 6s -1.2s infinite ease-in-out; transform-origin: center bottom; }	.leaf2 { animation: wave 6.2s -.5s infinite ease-in-out; transform-origin: center bottom; }	.leaf3 { animation: wave2 8s infinite ease-in-out; transform-origin: center bottom; }	.leaf4 { animation: wave 8s infinite ease-in-out; transform-origin: center bottom; }	.leaf5 { animation: wave2 7s 1.5s infinite ease-in-out; transform-origin: center bottom; }	.leaf6 { animation: wave 7s 1s infinite ease-in-out; transform-origin: center bottom; }	.leaf7 { animation: wave2 5s 0.5s infinite ease-in-out; transform-origin: center bottom; }	.leaf8 { animation: wave 5s 1s infinite ease-in-out; transform-origin: center bottom; }</style><g class="leaf1">	<path class="st0" d="M27.9,99.7c-16,45.1-5.6,106,13.3,150c34.8-29,56.9-78.1,62.3-98c6.2-22.7,5.6-46.8,1-69.9  c-4.5-23-14.3-45-23.2-66.8C58.7,39.8,39.2,68.1,27.9,99.7z"></path>	<path class="st1" d="M92.7,42.9c-0.2-0.4-0.3-0.8-0.5-1.2L71.1,62.4c0.9-4.2,1.9-8.4,2.8-12.7L89,33.6c-0.2-0.4-0.3-0.8-0.5-1.2  L74.4,47.4c1.4-6.4,2.9-12.9,4.5-19.5c0.1,0,0.1,0,0.1-0.1c0.1,0,0.1-0.1,0.2-0.1l5.2-5.5c-0.2-0.4-0.3-0.8-0.5-1.2l-4.4,4.7  c0.8-3.2,1.5-6.5,2.3-9.8c-0.1-0.3-0.3-0.6-0.4-1c-0.3,0.3-0.6,0.6-0.9,0.9c-1.4,5.6-2.7,11.1-4,16.6l-3.6-8  c-0.3,0.4-0.6,0.7-0.9,1l4,8.9c-1.2,5-2.3,10-3.4,14.8c0,0.1,0,0.1,0,0.1c-1.1,5-2.2,9.8-3.2,14.7c0,0.1,0,0.1-0.1,0.2  c-0.6,3-1.3,5.9-1.9,8.8L55.2,47.5c-0.3,0.4-0.5,0.8-0.8,1.1l12.7,26.4c-0.5,2.5-1,5-1.5,7.5l-15-28.1c-0.3,0.4-0.5,0.8-0.8,1.2  l15.3,28.8c-1.2,5.7-2.3,11.3-3.4,16.8c-0.1,0.1-0.1,0.2-0.1,0.3c-0.7,3.5-1.4,7-2,10.4L38,76.3c-0.2,0.4-0.4,0.9-0.6,1.3l22,36.2  c-1.6,8.4-3,16.4-4.4,24.2c-0.1,0.1-0.1,0.2-0.1,0.4c-1,5.7-1.9,11.3-2.8,16.7l-27.6-43.8c-0.1,0.6-0.3,1.1-0.4,1.6l27.7,44  c-0.4,2.7-0.8,5.3-1.2,7.9l-28.3-43.2c-0.1,0.6-0.2,1.2-0.3,1.8l28.3,43.2c-0.6,3.8-1.1,7.5-1.7,11.2c-0.1,0.1-0.1,0.2-0.1,0.4  c-0.7,5-1.4,9.9-2.1,14.6l-26.5-39c0,0.7,0,1.5,0.1,2.2l26.1,38.5c0,0,0.1,0.1,0.1,0.1c-0.2,1.8-0.5,3.5-0.7,5.2  c0,0.1-0.1,0.2-0.1,0.3c-0.3,2.2-0.6,4.4-0.8,6.6l-23.5-33.7c0.1,0.8,0.2,1.7,0.3,2.5l23,32.9c-1.8,15-3.2,28.1-4.1,39.4  c0.3,0.7,0.6,1.3,0.8,2c0.1-0.1,0.2-0.1,0.2-0.2c0-0.4,0.1-0.7,0.1-1.1c1.1-13.5,2.8-29.6,5.2-48.3l50.3-30.4  c0.3-0.6,0.5-1.3,0.8-1.9l-50.9,30.8c0.8-6.5,1.8-13.3,2.8-20.3l55.6-34.2c0.1-0.5,0.2-1.1,0.3-1.6L50,176.7  c1.8-11.9,3.8-24.6,6.1-38.1l51.4-36.4c-0.1-0.5-0.1-0.9-0.1-1.4l-50.9,36.1c1.9-11.1,4.1-22.8,6.5-35l39.1-31  c-0.1-0.4-0.2-0.9-0.4-1.3L63.3,100c2.2-11.3,4.7-23.1,7.3-35.4L92.7,42.9z"></path></g><g class="leaf2">	<path class="st2" d="M39.6,157.5c1.1-3.8,3.9-6.8,4.8-10.6c1-4.2-0.5-8.5-2-12.5c-1.5-4-2.9-7.9-4.4-11.9c-1.5-4.1-3-8.3-2.7-12.6  c0.7-9.7,10.1-16.4,10.4-26.3c0.1-2.1-0.5-4.3-1.9-5.8c-5.4-5.6-12.4,3.7-14.6,8c-5.4,10.7-7.3,26.7-2.6,37.9  c2.6,6.1,7.4,11.5,7.9,18.1c0.2,3-0.5,5.9-0.6,8.9c-0.3,5.4,1.2,10.8,4.1,15.4c1.5,2.4,3.7,4.6,6.5,5.1c-1.8-0.3-3.9-4.3-4.5-5.8  C39.1,162.9,38.9,160,39.6,157.5z"></path>	<path class="st3" d="M45.3,171.3c-0.1,0-0.1,0-0.2,0c-6.1-2.3-8.6-9.7-8.8-15.4c-0.1-2.6,0.6-4.6,1.3-6.5c1-2.8,2-5.7,0.7-10.3  c-0.8-2.8-2.1-6-3.4-9.2c-1.4-3.4-2.8-6.9-3.6-10c-4.5-15.8,0.1-26.3,8.8-38.1c0.1-0.1,0.2-0.1,0.3-0.1s0.1,0.2,0.1,0.3  c-8.6,11.7-13.1,22.1-8.7,37.7c0.9,3,2.3,6.5,3.6,10c1.2,3.1,2.5,6.4,3.4,9.2c1.4,4.7,0.3,7.7-0.7,10.5c-0.7,2-1.4,3.9-1.3,6.4  c0.2,5.6,2.5,12.8,8.5,15C45.3,171,45.4,171.1,45.3,171.3C45.4,171.2,45.3,171.3,45.3,171.3z"></path></g><g class="leaf3">	<path class="st4" d="M37.2,126.6c-1-8.2-0.2-17.4,5.4-23.5c1.3-1.4,2.8-2.6,4.7-2.9c3.2-0.4,6.1,2.2,7.3,5.2c1.4,3.5,1,7.5,0,11.2  c-1.1,3.7-2.8,7.1-4.2,10.6c-2.2,5.6-3.2,11.6-3,17.6c0.1,3,0.5,5.9,1.3,8.8c0.5,1.8,4.2,9.6,4.2,9.6  C44.6,154.6,38.5,138.1,37.2,126.6z"></path>	<path class="st0" d="M54.1,165c-0.1,0.1-0.3,0-0.3-0.1c-5.9-8.9-9.5-18.1-10.7-27.1c-1.3-10.2,0.3-20.6,4.8-31.1  c0.1-0.1,0.2-0.2,0.3-0.1c0.1,0.1,0.2,0.2,0.1,0.3c-4.5,10.4-6.1,20.8-4.8,30.9c1.2,9,4.8,18,10.6,26.9  C54.2,164.8,54.2,164.9,54.1,165L54.1,165z"></path></g><g class="leaf4">	<path class="st1" d="M82.5,249.4c-2.7-1-4.4-3.6-6-5.9c-2-3-4-6.2-4.1-9.8c-0.1-3.7,1.8-7.1,3-10.6c1.4-4.1,1.9-8.6,0.9-12.7  c-0.6-2.4-1.6-4.7-2.1-7.1c-1.1-5.2,0.2-10.8,3.1-15.2c4.2-6.4,12-11.3,12.4-19c0.3-5.3-3.2-10.5-1.8-15.7  c1.4-5.2,7.1-8.1,8.7-13.2c1.2-3.7-0.2-7.8-0.1-11.7c0.1-4.6,2.1-9.1,5.5-12.1c1.7-1.5,3.6-2.7,5.3-4.2c1.6-1.5,3-3.7,2.8-5.9  c2.2,1.2,2.8,4.1,2.8,6.6c-0.1,2.5-0.7,5-0.4,7.5c0.5,4.6,4,8.6,4.2,13.3c0.2,5.1-3.6,9.5-3.8,14.6c-0.2,4.8,2.9,9.1,3.6,13.8  c1.1,7.1-3.1,14.2-1.7,21.2c1.2,5.9,6.4,10.9,5.8,16.9c-0.4,3.9-3.3,7.3-3.5,11.2c-0.2,4.8,3.6,8.8,4.5,13.6  c0.9,4.8-1.3,9.8-4.3,13.6C108.9,248.6,94.5,254.1,82.5,249.4z"></path>	<path class="st0" d="M82.4,235.7L82.4,235.7c-0.2,0.1-0.4,0-0.5-0.2c-2.2-4.4,0.8-9.5,2.1-11.5c0.7-1,1.4-1.9,2.1-2.8  c1.7-2.2,3.5-4.4,4.3-7c0.9-2.5,0.8-5.3,0.8-8c0-2.6,0-5.3,0.7-7.9c0.7-2.3,2-4.4,3.2-6.4c1.6-2.6,3.2-5.1,3.5-8  c0.2-1.9-0.1-3.9-0.5-5.8c-0.4-2.1-0.8-4.2-0.4-6.4c0.3-2.1,1.3-3.9,2.2-5.7c1-2,2-3.9,2.2-5.9c0.2-2.1-0.4-4.1-1-6.1  c-0.5-1.6-1-3.3-1.1-5c-0.2-3.6,1.5-6.7,3.3-9.6c2.7-4.4,3.4-6.3,2.3-11.5c-0.4-2-0.7-4.2-0.1-6.2c0.4-1.3,1.1-2.4,1.9-3.5  c0.3-0.4,0.5-0.8,0.7-1.1c0.9-1.4,2.5-4.9,2.1-6.4c-0.1-0.2,0.1-0.4,0.3-0.5c0.2-0.1,0.4,0.1,0.5,0.3c0.5,1.9-1.3,5.6-2.2,7.1  c-0.3,0.4-0.5,0.8-0.8,1.1c-0.7,1.1-1.4,2.1-1.8,3.2c-0.6,1.9-0.3,4,0.1,5.8c1.1,5.5,0.3,7.5-2.4,12.1c-1.7,2.8-3.4,5.9-3.2,9.2  c0.1,1.6,0.6,3.2,1,4.8c0.6,2.1,1.2,4.2,1,6.4c-0.2,2.2-1.3,4.3-2.3,6.2c-0.9,1.8-1.8,3.6-2.1,5.5c-0.3,2,0.1,4,0.4,6.1  c0.4,2,0.7,4,0.5,6c-0.4,3.1-2,5.7-3.6,8.3c-1.2,2-2.5,4-3.1,6.2c-0.7,2.4-0.7,5.1-0.7,7.7c0,2.7,0,5.6-0.9,8.2  c-0.9,2.7-2.7,5-4.5,7.3c-0.7,0.9-1.4,1.8-2.1,2.8c-1.3,1.9-4.1,6.7-2.1,10.8C82.7,235.3,82.6,235.6,82.4,235.7z"></path></g><g class="leaf5">	<path class="st3" d="M97.5,103.3c-13.8,9.2-23.6,24.2-26.5,40.5C80.3,129.9,88.9,117.2,97.5,103.3z M65,162  c-1.6-4.6-2.2-9.6-2.5-14.5c-0.3-5.1-0.2-10.2,0.8-15.3c0.9-5,2.7-10,5.5-14.2c0.1,6.6-0.5,13.1-1.2,19.7  C66.7,145.6,65.9,154.1,65,162z M65.6,160.9c6.9-12.7,15.4-24.4,25.4-34.9C85.1,139.7,76.6,151.1,65.6,160.9z M62.2,176.1  c-8.1-14.3-11.4-31.2-9.2-47.5C57.2,144.4,60.2,159.8,62.2,176.1z M61.7,176.6c6.4-14.6,16.5-27.5,29-37.4  C83.9,153.8,74.1,166.4,61.7,176.6z M60,189.6c4.3-9.6,20.7-27.9,31.5-35.8C86.2,166.3,70.5,182.6,60,189.6z M60,189.9  c-11.5-12.9-17.8-30.4-17.1-47.7C51,157,56.6,173.3,60,189.9z M58.4,206.9c-13.6-11.9-22.1-29.3-23.4-47.3  c4.1,5,10.4,17.4,13.4,23.2C53.5,192.7,54.5,196.3,58.4,206.9z M94.5,173.9c-14.1,7.6-26.5,18.4-35.8,31.5  c4-1.1,14.2-8.5,17.3-11.1C79.2,191.5,86.5,183.9,94.5,173.9z"></path>	<path class="st5" d="M57.6,231.6c-0.9-19.7,0.1-39.7,4.2-59c4.1-19.3,11.5-38.1,22.7-54.4c-10.8,16.9-17.5,36.7-21.1,56.4  s-4,40-2.1,59.9C60.7,233.9,58.1,232.2,57.6,231.6z M65.3,161.3c-0.6-2.9-1-5.8-1.2-8.8c-0.3-3-0.3-5.9-0.2-8.9  c0.1-3,0.4-5.9,0.8-8.9c0.4-2.9,1-5.8,1.8-8.7c-0.6,2.9-1.1,5.8-1.4,8.8c-0.4,2.9-0.6,5.9-0.7,8.8c-0.1,2.9-0.1,5.9,0.1,8.9  C64.6,155.5,64.9,158.4,65.3,161.3z M65.5,160.2c1.7-2,3.3-4,5-6c1.6-2,3.3-4,4.9-6c1.6-2,3.2-4.1,4.7-6.1c1.6-2.1,3.1-4.1,4.7-6.2  c-1.4,2.2-2.8,4.3-4.3,6.4c-1.5,2.1-3.1,4.2-4.7,6.2c-1.6,2-3.3,4-5,6C69,156.4,67.3,158.3,65.5,160.2z M62.5,175  c1.6-1.8,3.2-3.7,4.8-5.5c1.6-1.9,3.1-3.7,4.6-5.6c1.5-1.9,3-3.9,4.4-5.8c1.4-2,2.8-4,4.2-6c-1.2,2.1-2.5,4.2-3.9,6.2  s-2.8,4-4.3,5.9c-1.5,1.9-3.1,3.8-4.7,5.6C66,171.5,64.3,173.3,62.5,175z M61.9,174.7c-2.1-5.7-3.8-11.5-5.2-17.5  c-1.3-5.9-2.3-12-2.7-18c0.4,3,0.9,6,1.4,9c0.5,3,1.1,6,1.8,8.9c0.7,3,1.4,5.9,2.2,8.9C60.2,168.9,61,171.8,61.9,174.7z   M59.6,188.8c-1.5-2.6-2.9-5.2-4.2-7.9c-1.3-2.7-2.5-5.5-3.5-8.2c-1.1-2.8-2-5.6-2.9-8.5c-0.9-2.9-1.6-5.8-2.2-8.7  c0.8,2.9,1.6,5.7,2.6,8.6c0.9,2.8,1.9,5.6,3,8.4c1.1,2.8,2.2,5.5,3.4,8.2C57,183.4,58.3,186.1,59.6,188.8z M60.4,188.6  c1-1.1,2.1-2.1,3.2-3.2c0.5-0.5,1-1.1,1.6-1.6l1.5-1.6c2.1-2.2,4.1-4.3,6.1-6.5c2-2.2,4-4.4,6-6.7c2-2.2,3.9-4.5,5.9-6.8  c-1.8,2.4-3.7,4.7-5.6,7c-1.9,2.3-3.9,4.5-5.9,6.8s-4.1,4.4-6.2,6.5C64.8,184.6,62.6,186.6,60.4,188.6z M58.9,205.3  c1-0.9,2-1.8,3-2.7l3-2.7l6-5.4c2-1.8,4-3.6,6.1-5.3s4.1-3.5,6.1-5.3c-1.9,1.9-3.9,3.7-5.9,5.5c-2,1.8-4,3.6-6,5.4  c-2,1.8-4,3.6-6.1,5.3C63.1,202,61.1,203.7,58.9,205.3z M58.4,206.9c-1.8-2.5-3.5-5.1-5.1-7.6c-1.6-2.6-3.2-5.3-4.7-7.9  c-1.5-2.7-2.9-5.4-4.2-8.2s-2.5-5.6-3.5-8.5c0.6,1.4,1.2,2.8,1.9,4.2c0.6,1.4,1.3,2.8,2,4.1l1,2l0.5,1l0.5,1c0.4,0.7,0.7,1.3,1.1,2  l1.1,2c1.5,2.7,3,5.3,4.6,8c0.8,1.3,1.6,2.6,2.4,3.9C56.8,204.3,57.6,205.6,58.4,206.9z"></path></g><g class="leaf6">	<path class="st5" d="M81.1,244.9c16-23,26.1-54.7,21.7-73.1c0,0-7,8.6-17.3,26.7c-10.3,18.1-16.9,33.4-16.9,33.4L81.1,244.9z"></path>	<path class="st6" d="M102.4,172.2c-0.5,2.4-1.1,4.8-1.8,7.3l-1.2-3.1c-0.1,0.2-0.2,0.3-0.4,0.5l1.4,3.5c-0.8,2.9-1.8,5.9-2.8,9  l-2.8-6.1c-0.1,0.2-0.2,0.3-0.3,0.5l2.9,6.3c-1.8,5.1-3.8,10.3-6,15.6l-3.4-11.2c-0.1,0.2-0.2,0.4-0.4,0.6l3.5,11.3  c-0.3,0.7-0.6,1.3-0.9,2L86.3,197c-0.1,0.2-0.2,0.4-0.3,0.6l3.9,11.2c-1.6,3.5-3.3,7.1-5.1,10.6l-4.1-12.2  c-0.1,0.2-0.2,0.4-0.3,0.6l4.1,12.2c-2.3,4.5-4.7,9.1-7.3,13.5c-0.1,0.1,0,0.3,0.1,0.4c0.1,0.1,0.3,0,0.4-0.1  c1.4-2.5,2.8-4.9,4.2-7.4l10.8-1.4c0.1-0.2,0.2-0.4,0.3-0.6L82,225.9c0.4-0.8,0.8-1.6,1.3-2.4l10.6-1.4c0.1-0.2,0.2-0.4,0.2-0.5  L83.6,223c2-3.9,3.9-7.7,5.7-11.6l9.3-1.3c0.1-0.2,0.1-0.4,0.2-0.5l-9.2,1.3c2.2-4.8,4.2-9.5,5.9-14.1l7-1.4c0-0.2,0.1-0.4,0.1-0.5  l-6.9,1.4c0.8-2,1.5-4.1,2.2-6.1c0,0,0-0.1,0-0.1c0.5-1.4,0.9-2.8,1.4-4.2l4.5-1.6c0-0.2,0-0.4,0-0.5l-4.4,1.5  c0.1-0.4,0.3-0.8,0.4-1.2l4-1.6c0-0.2,0-0.4,0-0.6l-3.8,1.5c0.3-1,0.6-2,0.9-2.9c0,0,0-0.1,0-0.1c0.8-2.7,1.4-5.4,2-8  c-0.1-0.2-0.1-0.4-0.1-0.6C102.8,171.7,102.6,171.9,102.4,172.2z"></path></g><g class="leaf7">	<path class="st5" d="M117.4,229.4c-4.7-7.5-7.2-16.4-6.9-25.3c0.2-8.9,3.1-17.6,8.2-24.9C126.9,194.6,126.8,214.8,117.4,229.4z"></path></g></svg>