<svg xmlns="http://www.w3.org/2000/svg" xmlns:xlink="http://www.w3.org/1999/xlink" id="Layer_1" x="0px" y="0px" viewBox="0 0 100.4 88.4" style="enable-background:new 0 0 100.4 88.4;" xml:space="preserve"><style type="text/css">	.st0{fill:#84A21D;}	.st1{fill:#004C1B;}	.st2{fill:#A6D66B;}	.st3{fill:#C6E5AC;}	.st4{fill:#005A2A;}	@keyframes wave {		0% {			transform: rotateZ(3deg) translateZ(-1px);		}		25%{			transform: rotateZ(-2deg) translateZ(-1px);		}		50% {			transform: rotateZ(2deg) translateZ(-1px);		}		75% {			transform: rotateZ(-3deg) translateZ(-1px);		}		100% {			transform: rotateZ(3deg) translateZ(-1px);		}	}	@keyframes wave2 {		0% {			transform: rotateZ(0deg) translateZ(-1px);		}		25%{			transform: rotateZ(-3deg) translateZ(-1px);		}		50% {			transform: rotateZ(3deg) translateZ(-1px);		}		75% {			transform: rotateZ(-1deg) translateZ(-1px);		}		100% {			transform: rotateZ(0deg) translateZ(-1px);		}	}	.leaf1 { animation: wave 6s -1.2s infinite ease-in-out; }	.leaf2 { animation: wave2 6.2s -.5s infinite ease-in-out; }	.leaf3 { animation: wave 8s infinite ease-in-out; }	.leaf4 { animation: wave2 8s infinite ease-in-out; }</style><g class="leaf1">	<path class="st0" d="M10.4,49.9c2.3-10.1,7.6-19.6,15.1-26.8S42.7,11,52.9,9.1C47,28.6,30.3,45.4,10.4,49.9z"></path></g><g class="leaf2">	<path class="st1" d="M76.5,55.7c0-14.1,6.8-28,17.8-36.8C94.2,34.2,87.4,49.3,76.4,60C76.4,58.5,76.5,57.2,76.5,55.7z"></path></g><g class="leaf3">	<path class="st2" d="M49.4,14.7c-1.1,2.1-2.4,4.3-4.5,5.5c-2.3,1.3-5.3,1.4-7.2,3.3c-2.5,2.6-1.5,7.1-3.5,10.1  C32,36.8,27,36.9,24.5,40c-3.5,4.3,0.7,12.6-5.3,14.6c-1.9,0.6-4.1,0.7-5.6,2.1c-2.4,2-1.9,5.3-2.7,8c-1,3-3.1,5.2-5,7.7  c-1.8,2.3-4.3,6.9-1.5,9.4c4,3.5,7.2-3.4,9.8-5.3c3.4-2.5,7.7-1,11-3.3c2.7-1.9,2.5-6,4.6-8.6c2.4-3.1,7.2-3.1,10.1-5.8  c2.5-2.3,3.1-6.2,5.8-8.2c3-2.3,7.5-1.5,10.6-3.6c3.5-2.3,4.2-7.2,7.2-10.1c3.8-3.6,10.2-2.9,14.4-6.1c3.5-2.7,4.6-7.8,3.2-11.9  s-4.9-7.4-9-9.1C63.6,6,54.1,6,49.4,14.7z"></path>	<path class="st3" d="M9,75.9c-0.1,0-0.2,0-0.3-0.1c-0.2-0.2-0.2-0.4,0-0.6c20-22.1,41.6-43.3,64.2-62.8c0.2-0.1,0.5-0.1,0.6,0.1  s0.1,0.5-0.1,0.6C50.9,32.5,29.3,53.7,9.3,75.8C9.3,75.9,9.1,75.9,9,75.9z"></path></g><g class="leaf4">	<path class="st4" d="M70.8,21c-2.5,1.7-5,3.5-7.5,5.2c-2.1,1.4-4.2,2.9-5.2,5.2c-1.3,3.1-0.4,7.3-2.8,9.7c-1.7,1.6-4.4,1.8-6,3.6  c-2.1,2.4-0.9,6.4-2.3,9.3c-1,2-3,3.1-4.4,4.8c-1.3,1.7-1.6,4.8,0.4,5.6c1.5,0.6,3.1-0.4,4-1.7c1-1.2,1.6-2.7,2.9-3.6  c2.7-1.9,6.5-0.4,9.6-1.3c5-1.5,6.6-8.4,11.5-10.3c2.4-0.9,5.3-0.4,7.4-2c2.6-1.8,2.8-5.8,5.3-7.7c1.5-1.2,3.7-1.4,5.5-2.1  c4.1-1.5,6.9-5.9,6.6-10.3c-0.3-4.3-4.4-9.2-8.5-10.4C81.9,13.2,75.2,18,70.8,21z"></path>	<path class="st1" d="M45,60.1c-0.1,0-0.2-0.1-0.3-0.1c-0.2-0.2-0.2-0.4,0-0.6C59.6,44.8,75.8,31.2,92.8,19c0.2-0.1,0.5-0.1,0.6,0.1  s0.1,0.5-0.1,0.6c-17,12.1-33.1,25.7-48,40.3C45.2,60.1,45.1,60.1,45,60.1z"></path></g></svg>